<svg width="26" height="26" viewBox="0 0 26 26" fill="none" xmlns="http://www.w3.org/2000/svg">
<g id="User / Users" clip-path="url(#clip0_769_847)">
<path id="Vector" d="M22.75 21.6666C22.75 19.7798 20.9413 18.1747 18.4167 17.5798M16.25 21.6667C16.25 19.2734 13.3399 17.3333 9.75 17.3333C6.16015 17.3333 3.25 19.2734 3.25 21.6667M16.25 14.0833C18.6432 14.0833 20.5833 12.1432 20.5833 9.75001C20.5833 7.35677 18.6432 5.41667 16.25 5.41667M9.75 14.0833C7.35677 14.0833 5.41667 12.1432 5.41667 9.75001C5.41667 7.35677 7.35677 5.41667 9.75 5.41667C12.1432 5.41667 14.0833 7.35677 14.0833 9.75001C14.0833 12.1432 12.1432 14.0833 9.75 14.0833Z" stroke="white" stroke-width="2" stroke-linecap="round" stroke-linejoin="round"/>
<path id="Vector_2" d="M22.75 21.6666C22.75 19.7798 20.9413 18.1747 18.4167 17.5798M16.25 14.0833C18.6432 14.0833 20.5833 12.1432 20.5833 9.75001C20.5833 7.35677 18.6432 5.41667 16.25 5.41667" stroke="#9451E9" stroke-width="2" stroke-linecap="round" stroke-linejoin="round"/>
</g>
<defs>
<clipPath id="clip0_769_847">
<rect width="26" height="26" fill="white"/>
</clipPath>
</defs>
</svg>
