<svg width="26" height="26" viewBox="0 0 26 26" fill="none" xmlns="http://www.w3.org/2000/svg">
<g id="Frame" clip-path="url(#clip0_765_1414)">
<g id="safety_certificate_line">
<path id="Vector" d="M12.2395 2.37792C12.667 2.21796 13.1341 2.19711 13.5742 2.31833L13.7605 2.37792L21.3438 5.22167C21.7283 5.36585 22.064 5.61633 22.3116 5.94393C22.5592 6.27152 22.7086 6.66274 22.7424 7.072L22.75 7.25075V13.0607C22.75 14.8161 22.276 16.539 21.3781 18.0475C20.4802 19.5559 19.1917 20.794 17.6486 21.6309L17.3604 21.7815L13.7269 23.5983C13.5269 23.6981 13.3083 23.7557 13.085 23.7672C12.8617 23.7788 12.6384 23.7441 12.4291 23.6654L12.2731 23.5983L8.63958 21.7815C7.06941 20.9964 5.74034 19.8019 4.79267 18.3242C3.845 16.8464 3.3139 15.1402 3.25542 13.3857L3.25 13.0607V7.25075C3.25001 6.84031 3.3666 6.43831 3.58619 6.09155C3.80579 5.7448 4.11937 5.46755 4.49042 5.29208L4.65617 5.22167L12.2395 2.37792ZM13 4.407L5.41667 7.25075V13.0607C5.41669 14.4203 5.78224 15.7548 6.47504 16.9247C7.16783 18.0945 8.16239 19.0566 9.35458 19.7102L9.60917 19.8434L13 21.5388L16.3908 19.8434C17.6071 19.2354 18.6375 18.3115 19.3742 17.1685C20.1108 16.0255 20.5266 14.7055 20.5779 13.3467L20.5833 13.0607V7.25075L13 4.407ZM16.7191 9.34808C16.914 9.15379 17.1756 9.04099 17.4507 9.03259C17.7259 9.02418 17.9939 9.12082 18.2003 9.30285C18.4067 9.48489 18.5362 9.73868 18.5623 10.0127C18.5884 10.2867 18.5092 10.5603 18.3408 10.7781L18.2509 10.8799L12.5808 16.5512C12.3742 16.7577 12.099 16.8811 11.8074 16.8981C11.5159 16.9151 11.2282 16.8244 10.9991 16.6432L10.8951 16.5512L8.29075 13.9468C8.09439 13.7523 7.9798 13.4901 7.97043 13.2139C7.96106 12.9377 8.05761 12.6683 8.24034 12.461C8.42306 12.2536 8.67813 12.1239 8.95334 12.0984C9.22855 12.073 9.50308 12.1537 9.72075 12.324L9.82258 12.4139L11.7379 14.3292L16.7191 9.34808Z" fill="white"/>
<path id="Vector_2" d="M16.719 9.34808C16.914 9.15379 17.1756 9.04099 17.4507 9.03259C17.7258 9.02419 17.9938 9.12082 18.2002 9.30285C18.4067 9.48489 18.5361 9.73868 18.5622 10.0127C18.5883 10.2867 18.5091 10.5603 18.3408 10.7781L18.2508 10.8799L12.5807 16.5512C12.3741 16.7577 12.0989 16.8811 11.8074 16.8981C11.5158 16.9151 11.2281 16.8244 10.999 16.6433L10.895 16.5512L8.29067 13.9468C8.09431 13.7523 7.97972 13.4901 7.97035 13.2139C7.96098 12.9377 8.05754 12.6683 8.24026 12.461C8.42299 12.2536 8.67806 12.1239 8.95327 12.0984C9.22847 12.073 9.50301 12.1537 9.72067 12.324L9.82251 12.4139L11.7378 14.3293L16.719 9.34808Z" fill="#7F33FF"/>
</g>
</g>
<defs>
<clipPath id="clip0_765_1414">
<rect width="26" height="26" fill="white"/>
</clipPath>
</defs>
</svg>
