<svg width="26" height="26" viewBox="0 0 26 26" fill="none" xmlns="http://www.w3.org/2000/svg">
<g id="Frame" clip-path="url(#clip0_766_1428)">
<g id="thumb_up_2_line">
<path id="Vector" fill-rule="evenodd" clip-rule="evenodd" d="M10.6394 3.47967C10.9601 2.73217 11.7878 2.054 12.8321 2.2555C14.4289 2.56208 16.1243 3.77325 16.2435 5.73733L16.25 5.95833V8.66667H18.8554C19.4723 8.66664 20.082 8.7983 20.6439 9.05284C21.2057 9.30739 21.7068 9.67896 22.1135 10.1427C22.5202 10.6065 22.8233 11.1517 23.0023 11.742C23.1814 12.3322 23.2324 12.9539 23.1519 13.5655L23.1194 13.7757L22.1336 19.1923C21.9588 20.1544 21.4638 21.029 20.729 21.6741C19.9942 22.3192 19.0628 22.6969 18.0863 22.7457L17.8707 22.75H6.5C5.67102 22.75 4.87336 22.4333 4.27022 21.8646C3.66708 21.2959 3.30405 20.5182 3.25542 19.6907L3.25 19.5V13C3.24995 12.171 3.56669 11.3734 4.13539 10.7702C4.7041 10.1671 5.48178 9.80405 6.30933 9.75542L6.5 9.75H7.95167L10.6394 3.47967ZM7.58333 11.9167H6.5C6.21268 11.9167 5.93713 12.0308 5.73397 12.234C5.5308 12.4371 5.41667 12.7127 5.41667 13V19.5C5.41667 19.7873 5.5308 20.0629 5.73397 20.266C5.93713 20.4692 6.21268 20.5833 6.5 20.5833H7.58333V11.9167ZM12.5938 4.42L9.83775 10.8518C9.79924 10.9413 9.773 11.0357 9.75975 11.1323L9.75 11.2775V20.5833H17.8707C18.3484 20.5834 18.8127 20.4256 19.1914 20.1344C19.5701 19.8433 19.842 19.4351 19.9648 18.9735L20.0027 18.8045L20.9885 13.3878C21.043 13.0888 21.0339 12.7817 20.962 12.4864C20.89 12.1911 20.7567 11.9143 20.5707 11.6739C20.3848 11.4335 20.1503 11.2349 19.8826 11.091C19.6149 10.9471 19.3199 10.8612 19.0168 10.8388L18.8554 10.8333H16.25C15.7034 10.8335 15.1769 10.6271 14.7761 10.2554C14.3753 9.8837 14.1297 9.37425 14.0888 8.82917L14.0833 8.66667V5.95833C14.0833 5.35925 13.6132 4.74933 12.7779 4.47417L12.5938 4.42Z" fill="white"/>
<path id="Vector 936" d="M8.66675 11.9167L8.66675 20.5833" stroke="#7F33FF" stroke-width="2.2"/>
</g>
</g>
<defs>
<clipPath id="clip0_766_1428">
<rect width="26" height="26" fill="white"/>
</clipPath>
</defs>
</svg>
