<svg width="26" height="26" viewBox="0 0 26 26" fill="none" xmlns="http://www.w3.org/2000/svg">
<g id="Frame" clip-path="url(#clip0_765_1423)">
<g id="clipboard_line">
<path id="Vector" d="M16.2499 2.16667C16.9898 2.16667 17.6442 2.53825 18.0342 3.10483L18.1263 3.25H19.4999C20.0465 3.24983 20.573 3.45627 20.9738 3.82795C21.3747 4.19964 21.6202 4.70908 21.6612 5.25417L21.6666 5.41667V18.4167C21.6665 19.8125 21.1276 21.1544 20.1622 22.1626C19.1968 23.1708 17.8795 23.7673 16.485 23.8279L16.2499 23.8333H6.49992C5.95329 23.8335 5.4268 23.6271 5.02599 23.2554C4.62518 22.8837 4.37967 22.3742 4.33867 21.8292L4.33325 21.6667V5.41667C4.33308 4.87004 4.53953 4.34355 4.91121 3.94274C5.28289 3.54193 5.79233 3.29641 6.33742 3.25542L6.49992 3.25H7.87359C8.04821 2.94748 8.29338 2.69166 8.58821 2.50435C8.88304 2.31704 9.21879 2.20379 9.56684 2.17425L9.74992 2.16667H16.2499ZM7.58325 5.41667H6.49992V21.6667H16.2499C17.1119 21.6667 17.9385 21.3243 18.548 20.7148C19.1575 20.1053 19.4999 19.2786 19.4999 18.4167V5.41667H18.4166C18.4166 5.9913 18.1883 6.5424 17.782 6.94873C17.3757 7.35506 16.8246 7.58333 16.2499 7.58333H9.74992C9.17528 7.58333 8.62418 7.35506 8.21785 6.94873C7.81152 6.5424 7.58325 5.9913 7.58325 5.41667ZM12.9999 15.1667C13.276 15.167 13.5416 15.2727 13.7424 15.4623C13.9432 15.6518 14.064 15.9109 14.0802 16.1865C14.0964 16.4622 14.0067 16.7336 13.8295 16.9453C13.6522 17.1571 13.4009 17.2931 13.1267 17.3257L12.9999 17.3333H9.74992C9.4738 17.333 9.20822 17.2273 9.00744 17.0377C8.80665 16.8482 8.68583 16.5891 8.66965 16.3135C8.65347 16.0378 8.74315 15.7664 8.92037 15.5547C9.09759 15.3429 9.34898 15.2069 9.62317 15.1742L9.74992 15.1667H12.9999ZM16.2499 10.8333C16.5372 10.8333 16.8128 10.9475 17.0159 11.1506C17.2191 11.3538 17.3333 11.6293 17.3333 11.9167C17.3333 12.204 17.2191 12.4795 17.0159 12.6827C16.8128 12.8859 16.5372 13 16.2499 13H9.74992C9.4626 13 9.18705 12.8859 8.98389 12.6827C8.78072 12.4795 8.66658 12.204 8.66658 11.9167C8.66658 11.6293 8.78072 11.3538 8.98389 11.1506C9.18705 10.9475 9.4626 10.8333 9.74992 10.8333H16.2499ZM16.2499 4.33333H9.74992V5.41667H16.2499V4.33333Z" fill="white"/>
<path id="Vector_2" d="M13.0001 15.1667C13.2762 15.167 13.5418 15.2727 13.7426 15.4623C13.9433 15.6518 14.0642 15.9109 14.0804 16.1865C14.0965 16.4622 14.0069 16.7336 13.8296 16.9453C13.6524 17.1571 13.401 17.2931 13.1268 17.3257L13.0001 17.3333H9.75008C9.47396 17.333 9.20838 17.2273 9.0076 17.0377C8.80682 16.8482 8.68599 16.5891 8.66981 16.3135C8.65363 16.0378 8.74331 15.7664 8.92053 15.5547C9.09776 15.3429 9.34914 15.2069 9.62333 15.1742L9.75008 15.1667H13.0001ZM16.2501 10.8333C16.5374 10.8333 16.8129 10.9475 17.0161 11.1506C17.2193 11.3538 17.3334 11.6293 17.3334 11.9167C17.3334 12.204 17.2193 12.4795 17.0161 12.6827C16.8129 12.8859 16.5374 13 16.2501 13H9.75008C9.46276 13 9.18721 12.8859 8.98405 12.6827C8.78088 12.4795 8.66675 12.204 8.66675 11.9167C8.66675 11.6293 8.78088 11.3538 8.98405 11.1506C9.18721 10.9475 9.46276 10.8333 9.75008 10.8333H16.2501Z" fill="#7F33FF"/>
</g>
</g>
<defs>
<clipPath id="clip0_765_1423">
<rect width="26" height="26" fill="white"/>
</clipPath>
</defs>
</svg>
