<svg width="26" height="26" viewBox="0 0 26 26" fill="none" xmlns="http://www.w3.org/2000/svg">
<g id="&#228;&#184;&#187;&#233;&#161;&#181;" clip-path="url(#clip0_788_3093)">
<g id="home_3_line">
<path id="Vector" d="M11.6698 2.912C12.0251 2.63553 12.4578 2.47664 12.9077 2.45742C13.3575 2.4382 13.8022 2.5596 14.1798 2.80475L14.3304 2.91309L23.4131 9.97642C24.1942 10.5842 23.8139 11.8094 22.8725 11.9102L22.7469 11.9167H21.6668V20.5833C21.6669 21.13 21.4605 21.6564 21.0888 22.0573C20.7171 22.4581 20.2077 22.7036 19.6626 22.7446L19.5001 22.75H6.5001C5.95366 22.7499 5.42744 22.5433 5.02686 22.1717C4.62628 21.8 4.38092 21.2907 4.33993 20.7458L4.33343 20.5833V11.9167H3.25335C2.26427 11.9167 1.81035 10.7163 2.49177 10.0588L2.5871 9.97642L11.6698 2.912ZM13.0001 4.62259L6.09385 9.99375C6.34193 10.1942 6.5001 10.5008 6.5001 10.8442V20.5833H9.7501V15.1667C9.7501 14.3047 10.0925 13.4781 10.702 12.8686C11.3115 12.2591 12.1381 11.9167 13.0001 11.9167C13.8621 11.9167 14.6887 12.2591 15.2982 12.8686C15.9077 13.4781 16.2501 14.3047 16.2501 15.1667V20.5833H19.5001V10.8442C19.5001 10.5008 19.6583 10.1942 19.9064 9.99375L13.0001 4.62259ZM13.0001 14.0833C12.7128 14.0833 12.4372 14.1975 12.2341 14.4006C12.0309 14.6038 11.9168 14.8793 11.9168 15.1667V20.5833H14.0834V15.1667C14.0834 14.8793 13.9693 14.6038 13.7661 14.4006C13.563 14.1975 13.2874 14.0833 13.0001 14.0833Z" fill="white"/>
</g>
</g>
<defs>
<clipPath id="clip0_788_3093">
<rect width="26" height="26" fill="white"/>
</clipPath>
</defs>
</svg>
