<svg width="26" height="26" viewBox="0 0 26 26" fill="none" xmlns="http://www.w3.org/2000/svg">
<g id="&#230;&#152;&#159;&#229;&#143;&#183;" clip-path="url(#clip0_788_3073)">
<g id="asterisk_line">
<path id="Vector" d="M12.9999 3.25C13.2872 3.25 13.5628 3.36414 13.766 3.5673C13.9691 3.77047 14.0833 4.04602 14.0833 4.33333V11.1237L19.9636 7.7285C20.2123 7.58711 20.5068 7.54982 20.7829 7.62477C21.059 7.69973 21.2942 7.88084 21.4372 8.12858C21.5803 8.37633 21.6195 8.67059 21.5464 8.94716C21.4733 9.22373 21.2937 9.46015 21.0469 9.60483L15.1666 13L21.0469 16.3952C21.1711 16.4658 21.2801 16.5603 21.3677 16.6732C21.4552 16.7861 21.5195 16.9152 21.557 17.0531C21.5944 17.191 21.6042 17.3349 21.5858 17.4766C21.5674 17.6182 21.5211 17.7549 21.4497 17.8786C21.3782 18.0023 21.283 18.1107 21.1695 18.1975C21.056 18.2843 20.9265 18.3478 20.7884 18.3843C20.6503 18.4208 20.5063 18.4296 20.3647 18.4103C20.2232 18.3909 20.0868 18.3438 19.9636 18.2715L14.0833 14.8763V21.6667C14.0833 21.954 13.9691 22.2295 13.766 22.4327C13.5628 22.6359 13.2872 22.75 12.9999 22.75C12.7126 22.75 12.4371 22.6359 12.2339 22.4327C12.0307 22.2295 11.9166 21.954 11.9166 21.6667V14.8763L6.03625 18.2715C5.913 18.3438 5.77667 18.3909 5.63512 18.4103C5.49357 18.4296 5.34958 18.4208 5.21146 18.3843C5.07334 18.3478 4.9438 18.2843 4.83031 18.1975C4.71682 18.1107 4.62161 18.0023 4.55018 17.8786C4.47874 17.7549 4.43248 17.6182 4.41407 17.4766C4.39565 17.3349 4.40544 17.191 4.44288 17.0531C4.48031 16.9152 4.54464 16.7861 4.63218 16.6732C4.71971 16.5603 4.82872 16.4658 4.95292 16.3952L10.8333 13L4.95292 9.60483C4.70613 9.46015 4.52658 9.22373 4.45346 8.94716C4.38034 8.67059 4.41958 8.37633 4.56262 8.12858C4.70566 7.88084 4.94089 7.69973 5.21697 7.62477C5.49304 7.54982 5.78756 7.58711 6.03625 7.7285L11.9166 11.1237V4.33333C11.9166 4.04602 12.0307 3.77047 12.2339 3.5673C12.4371 3.36414 12.7126 3.25 12.9999 3.25Z" fill="white"/>
</g>
</g>
<defs>
<clipPath id="clip0_788_3073">
<rect width="26" height="26" fill="white"/>
</clipPath>
</defs>
</svg>
