<svg width="26" height="26" viewBox="0 0 26 26" fill="none" xmlns="http://www.w3.org/2000/svg">
<g id="&#229;&#136;&#183;&#230;&#150;&#176;">
<g id="Arrow / Arrow_Reload_02">
<path id="Vector" d="M15.1667 17.3333H20.5833V22.75M10.8333 8.66667H5.41667V3.25M21.0357 9.75369C20.4283 8.2503 19.4113 6.94746 18.1003 5.99325C16.7894 5.03903 15.2373 4.47148 13.62 4.35555C12.0026 4.23962 10.3849 4.57969 8.95125 5.33716C7.5176 6.09464 6.32539 7.23942 5.50977 8.6408M4.96387 16.2468C5.57128 17.7502 6.58825 19.0531 7.8992 20.0073C9.21016 20.9615 10.7639 21.5283 12.3812 21.6442C13.9985 21.7602 15.6149 21.4202 17.0486 20.6627C18.4822 19.9052 19.6736 18.7606 20.4892 17.3593" stroke="white" stroke-width="2" stroke-linecap="round" stroke-linejoin="round"/>
</g>
</g>
</svg>
