<svg width="26" height="26" viewBox="0 0 26 26" fill="none" xmlns="http://www.w3.org/2000/svg">
<g id="&#230;&#154;&#130;&#229;&#129;&#156;" clip-path="url(#clip0_788_3121)">
<path id="Vector" d="M4.33325 17.7298V8.27093C4.33325 7.49096 4.33325 7.10054 4.46332 6.86977C4.57684 6.66835 4.75182 6.53611 4.94608 6.50449C5.16857 6.46828 5.44145 6.65193 5.98644 7.01872L13.0137 11.7481L13.0162 11.7496C13.6185 12.1549 13.9198 12.3577 14.0186 12.6279C14.1048 12.8637 14.1048 13.1358 14.0186 13.3716C13.9196 13.6422 13.6176 13.8458 13.0137 14.2523L5.98644 18.9817C5.44106 19.3488 5.16865 19.5317 4.94608 19.4955C4.75182 19.4639 4.57684 19.3317 4.46332 19.1302C4.33325 18.8995 4.33325 18.5098 4.33325 17.7298Z" stroke="white" stroke-width="2" stroke-linecap="round" stroke-linejoin="round"/>
<path id="Vector_2" d="M21.6666 6.5V19.5M17.3333 6.5V19.5" stroke="white" stroke-width="2" stroke-linecap="round" stroke-linejoin="round"/>
</g>
<defs>
<clipPath id="clip0_788_3121">
<rect width="26" height="26" fill="white"/>
</clipPath>
</defs>
</svg>
