<svg width="26" height="26" viewBox="0 0 26 26" fill="none" xmlns="http://www.w3.org/2000/svg">
<g id="&#228;&#188;&#145;&#231;&#156;&#160;" clip-path="url(#clip0_788_3029)">
<g id="power_line">
<path id="Vector" d="M17.4894 4.27482C17.6485 4.0357 17.896 3.86953 18.1776 3.81286C18.4592 3.75618 18.7517 3.81363 18.9909 3.97257C20.4807 4.96046 21.7027 6.30193 22.5477 7.87717C23.3927 9.45242 23.8344 11.2124 23.8334 13C23.8334 18.9832 18.9833 23.8333 13.0001 23.8333C7.01683 23.8333 2.16675 18.9832 2.16675 13C2.16577 11.2124 2.6075 9.45242 3.4525 7.87717C4.29749 6.30193 5.51945 4.96046 7.00925 3.97257C7.24859 3.81354 7.54129 3.7561 7.82298 3.81289C8.10467 3.86967 8.35226 4.03603 8.51129 4.27536C8.67032 4.5147 8.72776 4.80741 8.67098 5.0891C8.61419 5.37078 8.44784 5.61838 8.2085 5.77741C6.65721 6.8067 5.47859 8.30816 4.84715 10.0595C4.21571 11.8109 4.165 13.719 4.70254 15.5014C5.24008 17.2838 6.33729 18.8458 7.83172 19.956C9.32616 21.0662 11.1384 21.6657 13.0001 21.6657C14.8618 21.6657 16.674 21.0662 18.1684 19.956C19.6629 18.8458 20.7601 17.2838 21.2976 15.5014C21.8352 13.719 21.7845 11.8109 21.153 10.0595C20.5216 8.30816 19.343 6.8067 17.7917 5.77741C17.673 5.69872 17.5711 5.59741 17.4916 5.47929C17.4121 5.36116 17.3567 5.22853 17.3286 5.08899C17.3004 4.94944 17.3 4.8057 17.3274 4.666C17.3548 4.5263 17.4106 4.39338 17.4894 4.27482ZM13.0001 2.16666C13.2654 2.16669 13.5215 2.26411 13.7198 2.44043C13.9181 2.61675 14.0448 2.85972 14.0758 3.12324L14.0834 3.24999V14.0833C14.0831 14.3594 13.9774 14.625 13.7878 14.8258C13.5983 15.0266 13.3392 15.1474 13.0636 15.1636C12.7879 15.1798 12.5165 15.0901 12.3048 14.9129C12.093 14.7356 11.9569 14.4843 11.9243 14.2101L11.9168 14.0833V3.24999C11.9168 2.96267 12.0309 2.68712 12.2341 2.48396C12.4372 2.28079 12.7128 2.16666 13.0001 2.16666Z" fill="#EB3030"/>
</g>
</g>
<defs>
<clipPath id="clip0_788_3029">
<rect width="26" height="26" fill="white"/>
</clipPath>
</defs>
</svg>
