<svg width="26" height="26" viewBox="0 0 26 26" fill="none" xmlns="http://www.w3.org/2000/svg">
<g id="&#233;&#157;&#153;&#233;&#159;&#179;" clip-path="url(#clip0_788_3067)">
<path id="Vector" d="M17.5193 9.93544L23.6475 16.0637M17.5193 16.0637L23.6475 9.93544M8.10374 16.6903L9.91857 18.9362C10.8646 20.107 11.3377 20.6923 11.7521 20.7561C12.1109 20.8112 12.4734 20.6831 12.7178 20.4147C13.0001 20.1046 13.0001 19.352 13.0001 17.8468V8.15237C13.0001 6.64713 13.0001 5.89452 12.7178 5.58447C12.4734 5.31608 12.1109 5.1879 11.7521 5.24307C11.3377 5.30679 10.8646 5.89217 9.91857 7.06293L8.10374 9.30879C7.91261 9.54531 7.81705 9.66356 7.69881 9.74866C7.59405 9.82405 7.47667 9.88011 7.35219 9.91421C7.21169 9.95269 7.05964 9.95269 6.75556 9.95269H5.21362C4.3944 9.95269 3.9848 9.95269 3.65377 10.062C3.00233 10.2773 2.49131 10.7883 2.2761 11.4397C2.16675 11.7707 2.16675 12.1803 2.16675 12.9996C2.16675 13.8188 2.16675 14.2284 2.2761 14.5594C2.49131 15.2109 3.00233 15.7219 3.65377 15.9371C3.9848 16.0464 4.3944 16.0464 5.21362 16.0464H6.75556C7.05964 16.0464 7.21169 16.0464 7.35219 16.0849C7.47667 16.119 7.59405 16.1751 7.69881 16.2505C7.81705 16.3356 7.91261 16.4538 8.10374 16.6903Z" stroke="white" stroke-width="2" stroke-linecap="round" stroke-linejoin="round"/>
</g>
<defs>
<clipPath id="clip0_788_3067">
<rect width="26" height="26" fill="white"/>
</clipPath>
</defs>
</svg>
