<svg width="26" height="26" viewBox="0 0 26 26" fill="none" xmlns="http://www.w3.org/2000/svg">
<g id="&#233;&#148;&#174;&#231;&#155;&#152;" clip-path="url(#clip0_788_3083)">
<g id="keyboard_line">
<path id="Vector" d="M21.6667 4.33334C22.2134 4.33317 22.7399 4.53962 23.1407 4.9113C23.5415 5.28298 23.787 5.79243 23.828 6.33751L23.8334 6.50001V19.5C23.8336 20.0466 23.6271 20.5731 23.2555 20.9739C22.8838 21.3748 22.3743 21.6203 21.8292 21.6613L21.6667 21.6667H4.33341C3.78679 21.6669 3.2603 21.4604 2.85949 21.0887C2.45867 20.717 2.21316 20.2076 2.17216 19.6625L2.16675 19.5V6.50001C2.16658 5.95339 2.37302 5.4269 2.7447 5.02608C3.11638 4.62527 3.62583 4.37976 4.17091 4.33876L4.33341 4.33334H21.6667ZM21.6667 6.50001H4.33341V19.5H21.6667V6.50001ZM18.4167 15.1667C18.6929 15.167 18.9584 15.2727 19.1592 15.4623C19.36 15.6518 19.4808 15.9109 19.497 16.1865C19.5132 16.4622 19.4235 16.7336 19.2463 16.9453C19.0691 17.1571 18.8177 17.2931 18.5435 17.3258L18.4167 17.3333H7.58341C7.30729 17.333 7.04171 17.2273 6.84093 17.0378C6.64015 16.8482 6.51933 16.5891 6.50314 16.3135C6.48696 16.0379 6.57665 15.7664 6.75387 15.5547C6.93109 15.343 7.18248 15.2069 7.45666 15.1743L7.58341 15.1667H18.4167ZM8.66675 11.9167C8.95407 11.9167 9.22962 12.0308 9.43278 12.234C9.63594 12.4371 9.75008 12.7127 9.75008 13C9.75008 13.2873 9.63594 13.5629 9.43278 13.766C9.22962 13.9692 8.95407 14.0833 8.66675 14.0833H7.58341C7.2961 14.0833 7.02055 13.9692 6.81738 13.766C6.61422 13.5629 6.50008 13.2873 6.50008 13C6.50008 12.7127 6.61422 12.4371 6.81738 12.234C7.02055 12.0308 7.2961 11.9167 7.58341 11.9167H8.66675ZM13.5417 11.9167C13.8179 11.917 14.0834 12.0227 14.2842 12.2123C14.485 12.4018 14.6058 12.6609 14.622 12.9365C14.6382 13.2122 14.5485 13.4836 14.3713 13.6953C14.1941 13.9071 13.9427 14.0431 13.6685 14.0758L13.5417 14.0833H12.4584C12.1823 14.083 11.9167 13.9773 11.7159 13.7878C11.5152 13.5982 11.3943 13.3391 11.3781 13.0635C11.362 12.7879 11.4516 12.5164 11.6289 12.3047C11.8061 12.093 12.0575 11.9569 12.3317 11.9243L12.4584 11.9167H13.5417ZM18.4167 11.9167C18.7041 11.9167 18.9796 12.0308 19.1828 12.234C19.3859 12.4371 19.5001 12.7127 19.5001 13C19.5001 13.2873 19.3859 13.5629 19.1828 13.766C18.9796 13.9692 18.7041 14.0833 18.4167 14.0833H17.3334C17.0461 14.0833 16.7705 13.9692 16.5674 13.766C16.3642 13.5629 16.2501 13.2873 16.2501 13C16.2501 12.7127 16.3642 12.4371 16.5674 12.234C16.7705 12.0308 17.0461 11.9167 17.3334 11.9167H18.4167ZM8.66675 8.66668C8.94287 8.66698 9.20845 8.77271 9.40923 8.96226C9.61001 9.15181 9.73084 9.41088 9.74702 9.68652C9.7632 9.96217 9.67352 10.2336 9.49629 10.4453C9.31907 10.6571 9.06768 10.7931 8.7935 10.8258L8.66675 10.8333H7.58341C7.30729 10.833 7.04171 10.7273 6.84093 10.5378C6.64015 10.3482 6.51933 10.0891 6.50314 9.8135C6.48696 9.53785 6.57665 9.26643 6.75387 9.05469C6.93109 8.84295 7.18248 8.70687 7.45666 8.67426L7.58341 8.66668H8.66675ZM13.5417 8.66668C13.8291 8.66668 14.1046 8.78081 14.3078 8.98398C14.5109 9.18714 14.6251 9.46269 14.6251 9.75001C14.6251 10.0373 14.5109 10.3129 14.3078 10.516C14.1046 10.7192 13.8291 10.8333 13.5417 10.8333H12.4584C12.1711 10.8333 11.8955 10.7192 11.6924 10.516C11.4892 10.3129 11.3751 10.0373 11.3751 9.75001C11.3751 9.46269 11.4892 9.18714 11.6924 8.98398C11.8955 8.78081 12.1711 8.66668 12.4584 8.66668H13.5417ZM18.4167 8.66668C18.6929 8.66698 18.9584 8.77271 19.1592 8.96226C19.36 9.15181 19.4808 9.41088 19.497 9.68652C19.5132 9.96217 19.4235 10.2336 19.2463 10.4453C19.0691 10.6571 18.8177 10.7931 18.5435 10.8258L18.4167 10.8333H17.3334C17.0573 10.833 16.7917 10.7273 16.5909 10.5378C16.3902 10.3482 16.2693 10.0891 16.2531 9.8135C16.237 9.53785 16.3266 9.26643 16.5039 9.05469C16.6811 8.84295 16.9325 8.70687 17.2067 8.67426L17.3334 8.66668H18.4167Z" fill="white"/>
</g>
</g>
<defs>
<clipPath id="clip0_788_3083">
<rect width="26" height="26" fill="white"/>
</clipPath>
</defs>
</svg>
