<svg width="26" height="26" viewBox="0 0 26 26" fill="none" xmlns="http://www.w3.org/2000/svg">
<g id="Frame" clip-path="url(#clip0_788_3171)">
<g id="tv_1_fill">
<path id="Vector" d="M17.3334 19.5C17.6095 19.5003 17.8751 19.606 18.0759 19.7956C18.2767 19.9851 18.3975 20.2442 18.4137 20.5198C18.4299 20.7955 18.3402 21.0669 18.163 21.2787C17.9857 21.4904 17.7344 21.6265 17.4602 21.6591L17.3334 21.6667H8.66675C8.39063 21.6664 8.12505 21.5606 7.92426 21.3711C7.72348 21.1815 7.60266 20.9225 7.58648 20.6468C7.5703 20.3712 7.65998 20.0998 7.8372 19.888C8.01442 19.6763 8.26581 19.5402 8.54 19.5076L8.66675 19.5H17.3334ZM21.6667 4.33333C22.2134 4.33316 22.7399 4.53961 23.1407 4.91129C23.5415 5.28297 23.787 5.79242 23.828 6.3375L23.8334 6.5V16.25C23.8336 16.7966 23.6271 17.3231 23.2555 17.7239C22.8838 18.1247 22.3743 18.3703 21.8292 18.4113L21.6667 18.4167H4.33341C3.78679 18.4168 3.2603 18.2104 2.85949 17.8387C2.45867 17.467 2.21316 16.9576 2.17216 16.4125L2.16675 16.25V6.5C2.16658 5.95338 2.37302 5.42689 2.7447 5.02607C3.11638 4.62526 3.62583 4.37975 4.17091 4.33875L4.33341 4.33333H21.6667Z" fill="#3AE875"/>
</g>
<path id="Vector_2" fill-rule="evenodd" clip-rule="evenodd" d="M10.7408 8.90275C10.7492 8.82344 10.7741 8.74742 10.8135 8.68073C10.8529 8.61404 10.9058 8.55853 10.9679 8.51862C11.0299 8.47872 11.0995 8.45551 11.1711 8.45086C11.2426 8.4462 11.3141 8.46023 11.38 8.49182C11.7127 8.65033 12.4584 9.02704 13.4047 9.63558C14.3512 10.2445 15.017 10.7762 15.3062 11.0174C15.5532 11.2238 15.5538 11.633 15.3066 11.84C15.0202 12.0798 14.3625 12.6046 13.4047 13.2211C12.4459 13.8377 11.709 14.2099 11.3793 14.3663C11.0955 14.5014 10.7777 14.2965 10.7408 13.9554C10.6975 13.5567 10.6167 12.6514 10.6167 11.4287C10.6167 10.2068 10.6972 9.30181 10.7408 8.90275Z" fill="#0A0A0A"/>
</g>
<defs>
<clipPath id="clip0_788_3171">
<rect width="26" height="26" fill="white"/>
</clipPath>
</defs>
</svg>
