<svg width="26" height="26" viewBox="0 0 26 26" fill="none" xmlns="http://www.w3.org/2000/svg">
<g id="&#232;&#167;&#166;&#230;&#142;&#167;&#230;&#157;&#191;" clip-path="url(#clip0_788_3061)">
<path id="Vector" d="M4.63053 14.9558L4.6305 14.9559C3.48741 16.0636 3.54389 17.9538 4.67831 19.1065L4.67837 19.1065L8.7788 23.2658C8.7788 23.2658 8.7788 23.2658 8.77881 23.2658C8.95315 23.4427 9.18117 23.4974 9.39525 23.498C9.56413 23.5099 9.73247 23.4688 9.87742 23.3804C10.0234 23.2914 10.1384 23.1588 10.2069 23.0011C10.2753 22.8435 10.294 22.6683 10.2603 22.4995C10.2267 22.3313 10.1428 22.1775 10.0196 22.0591L5.92166 17.9008C5.45171 17.4239 5.41804 16.6289 5.86691 16.2185L5.867 16.2186L5.87066 16.2149C6.3273 15.7516 7.06237 15.7927 7.52797 16.2652L9.27724 18.0402C9.39384 18.1651 9.54581 18.2507 9.7125 18.2849C9.87969 18.3193 10.0532 18.3002 10.2092 18.2305C10.3652 18.1608 10.4958 18.0439 10.5833 17.8961C10.6702 17.7494 10.7104 17.5794 10.6988 17.4089V8.58556C10.6988 7.92355 11.2107 7.36609 11.8496 7.36609C12.4869 7.36609 12.9989 7.92346 12.9989 8.58556V13.8102C12.9989 14.2704 13.3918 14.6711 13.8488 14.6711H20.3475C20.3855 14.6711 20.4208 14.6896 20.4497 14.7272C20.4793 14.7658 20.4979 14.8201 20.4979 14.8755V22.6371C20.4979 23.0973 20.8908 23.498 21.3478 23.498C21.8049 23.498 22.1977 23.0973 22.1977 22.6371V14.7776C22.2487 13.7551 21.4026 12.899 20.3985 12.899H14.7482V8.53534C14.7482 6.90907 13.4567 5.59399 11.8991 5.59399C10.3415 5.59399 9.04998 6.90907 9.04998 8.53534V15.3428L8.72044 15.0094C8.72037 15.0093 8.72029 15.0092 8.72022 15.0092C8.1811 14.4597 7.45099 14.1461 6.68628 14.1361C5.92147 14.126 5.1835 14.4205 4.63053 14.9558ZM7.35023 8.78752C7.80577 8.78752 8.20012 8.38525 8.20012 7.92659C8.20012 5.90002 9.85599 4.22189 11.8496 4.22189C13.8418 4.22189 15.4991 5.90005 15.4991 7.92659C15.4991 8.38512 15.8918 8.78752 16.349 8.78752C16.8045 8.78752 17.1989 8.38525 17.1989 7.92659C17.1989 6.48783 16.6357 5.10772 15.6326 4.08993C14.6296 3.07209 13.2688 2.50001 11.8496 2.50001C10.4304 2.50001 9.06965 3.07209 8.06658 4.08993C7.06356 5.10772 6.50033 6.48783 6.50033 7.92659C6.50033 8.38512 6.89305 8.78752 7.35023 8.78752Z" fill="#666666" stroke="#666666" stroke-width="0.2"/>
</g>
<defs>
<clipPath id="clip0_788_3061">
<rect width="26" height="26" fill="white"/>
</clipPath>
</defs>
</svg>
