<svg width="26" height="26" viewBox="0 0 26 26" fill="none" xmlns="http://www.w3.org/2000/svg">
<g id="&#230;&#142;&#167;&#228;&#187;&#182;" clip-path="url(#clip0_788_3051)">
<g id="remote_control_line">
<path id="Vector" d="M17.3334 2.16666C19.0643 2.16666 20.4791 3.51966 20.5779 5.22569L20.5834 5.41666V20.5833C20.5834 22.3142 19.2305 23.729 17.5244 23.8278L17.3334 23.8333H8.66675C6.93593 23.8333 5.52112 22.4804 5.42227 20.7743L5.41675 20.5833V5.41666C5.41675 3.68584 6.76975 2.27102 8.47579 2.17217L8.66675 2.16666H17.3334ZM17.3334 4.33332H8.66675C8.11118 4.33332 7.65328 4.75154 7.5907 5.29032L7.58341 5.41666V20.5833C7.58341 21.1389 8.00163 21.5968 8.54041 21.6594L8.66675 21.6667H17.3334C17.889 21.6667 18.3469 21.2485 18.4095 20.7097L18.4167 20.5833V5.41666C18.4167 4.81835 17.9317 4.33332 17.3334 4.33332ZM15.1667 17.3333C15.7651 17.3333 16.2501 17.8183 16.2501 18.4167C16.2501 18.9722 15.8319 19.4301 15.2931 19.4927L15.1667 19.5H14.6251C14.0268 19.5 13.5417 19.015 13.5417 18.4167C13.5417 17.8611 13.9599 17.4032 14.4987 17.3406L14.6251 17.3333H15.1667ZM11.3751 17.3333C11.9734 17.3333 12.4584 17.8183 12.4584 18.4167C12.4584 19.015 11.9734 19.5 11.3751 19.5H10.8334C10.2351 19.5 9.75008 19.015 9.75008 18.4167C9.75008 17.8183 10.2351 17.3333 10.8334 17.3333H11.3751ZM15.1667 14.0833C15.7651 14.0833 16.2501 14.5683 16.2501 15.1667C16.2501 15.7222 15.8319 16.1801 15.2931 16.2427L15.1667 16.25H14.6251C14.0268 16.25 13.5417 15.765 13.5417 15.1667C13.5417 14.6111 13.9599 14.1532 14.4987 14.0906L14.6251 14.0833H15.1667ZM11.3751 14.0833C11.9734 14.0833 12.4584 14.5683 12.4584 15.1667C12.4584 15.765 11.9734 16.25 11.3751 16.25H10.8334C10.2351 16.25 9.75008 15.765 9.75008 15.1667C9.75008 14.5683 10.2351 14.0833 10.8334 14.0833H11.3751ZM13.0001 5.41666C15.0942 5.41666 16.7917 7.11424 16.7917 9.20832C16.7917 11.3024 15.0942 13 13.0001 13C10.906 13 9.20841 11.3024 9.20841 9.20832C9.20841 7.11424 10.906 5.41666 13.0001 5.41666ZM13.0001 7.58332C12.1026 7.58332 11.3751 8.31086 11.3751 9.20832C11.3751 10.1058 12.1026 10.8333 13.0001 10.8333C13.8975 10.8333 14.6251 10.1058 14.6251 9.20832C14.6251 8.31086 13.8975 7.58332 13.0001 7.58332Z" fill="white"/>
</g>
</g>
<defs>
<clipPath id="clip0_788_3051">
<rect width="26" height="26" fill="white"/>
</clipPath>
</defs>
</svg>
