<svg width="26" height="26" viewBox="0 0 26 26" fill="none" xmlns="http://www.w3.org/2000/svg">
<g id="&#230;&#156;&#170;&#232;&#191;&#158;&#230;&#142;&#165;&#231;&#138;&#182;&#230;&#128;&#129;" clip-path="url(#clip0_788_2870)">
<g id="tv_1_fill">
<path id="Vector" d="M17.3334 19.5C17.6095 19.5003 17.8751 19.606 18.0759 19.7956C18.2767 19.9851 18.3975 20.2442 18.4137 20.5199C18.4299 20.7955 18.3402 21.0669 18.163 21.2787C17.9857 21.4904 17.7344 21.6265 17.4602 21.6591L17.3334 21.6667H8.66675C8.39063 21.6664 8.12505 21.5606 7.92426 21.3711C7.72348 21.1815 7.60266 20.9225 7.58648 20.6468C7.5703 20.3712 7.65998 20.0998 7.8372 19.888C8.01442 19.6763 8.26581 19.5402 8.54 19.5076L8.66675 19.5H17.3334ZM21.6667 4.33334C22.2134 4.33317 22.7399 4.53962 23.1407 4.9113C23.5415 5.28298 23.787 5.79243 23.828 6.33751L23.8334 6.50001V16.25C23.8336 16.7966 23.6271 17.3231 23.2555 17.7239C22.8838 18.1248 22.3743 18.3703 21.8292 18.4113L21.6667 18.4167H4.33341C3.78679 18.4169 3.2603 18.2104 2.85949 17.8387C2.45867 17.467 2.21316 16.9576 2.17216 16.4125L2.16675 16.25V6.50001C2.16658 5.95339 2.37302 5.4269 2.7447 5.02608C3.11638 4.62527 3.62583 4.37976 4.17091 4.33876L4.33341 4.33334H21.6667Z" fill="white"/>
</g>
<path id="Vector_2" fill-rule="evenodd" clip-rule="evenodd" d="M13.0035 11.7874L14.668 13.4519C14.7235 13.5054 14.7978 13.5351 14.8749 13.5344C14.9521 13.5338 15.0259 13.5028 15.0804 13.4483C15.135 13.3937 15.1659 13.3199 15.1666 13.2428C15.1672 13.1656 15.1376 13.0913 15.084 13.0358L13.4196 11.3714L15.084 9.70697C15.1376 9.65148 15.1672 9.57716 15.1666 9.50001C15.1659 9.42287 15.135 9.34907 15.0804 9.29452C15.0259 9.23997 14.9521 9.20902 14.8749 9.20835C14.7978 9.20768 14.7235 9.23734 14.668 9.29094L13.0035 10.9554L11.3391 9.29094C11.2834 9.23867 11.2095 9.21013 11.1331 9.21137C11.0567 9.21261 10.9837 9.24353 10.9297 9.29758C10.8757 9.35164 10.8448 9.42458 10.8437 9.50099C10.8425 9.57739 10.8711 9.65126 10.9234 9.70697L12.5875 11.3714L10.9231 13.0358C10.895 13.063 10.8726 13.0954 10.8571 13.1313C10.8417 13.1672 10.8336 13.2058 10.8333 13.2449C10.8329 13.284 10.8404 13.3227 10.8552 13.3589C10.87 13.395 10.8918 13.4279 10.9194 13.4555C10.9471 13.4831 10.9799 13.505 11.0161 13.5198C11.0522 13.5346 11.091 13.542 11.13 13.5417C11.1691 13.5413 11.2077 13.5332 11.2436 13.5178C11.2795 13.5024 11.312 13.48 11.3391 13.4519L13.0035 11.7874Z" fill="#0A0A0A" stroke="black" stroke-width="0.6"/>
</g>
<defs>
<clipPath id="clip0_788_2870">
<rect width="26" height="26" fill="white"/>
</clipPath>
</defs>
</svg>
