<svg width="26" height="26" viewBox="0 0 26 26" fill="none" xmlns="http://www.w3.org/2000/svg">
<g id="Frame" clip-path="url(#clip0_788_4191)">
<path id="Vector" d="M13.0002 1.625C14.4315 1.625 15.6911 2.00213 16.7342 2.70142C17.7774 3.40072 18.6044 4.42219 19.1704 5.71086C19.7365 6.99953 20.0418 8.55541 20.0418 10.3235V15.6765C20.0418 17.4446 19.7365 19.0005 19.1704 20.2891C18.6044 21.5778 17.7774 22.5993 16.7342 23.2986C15.6911 23.9979 14.4315 24.375 13.0002 24.375C11.5689 24.375 10.3093 23.9979 9.2661 23.2986C8.22288 22.5993 7.39598 21.5778 6.82989 20.2891C6.26379 19.0005 5.9585 17.4446 5.9585 15.6765V10.3235C5.9585 8.55541 6.26379 6.99953 6.82989 5.71086C7.39598 4.42219 8.22288 3.40072 9.2661 2.70142C10.3093 2.00213 11.5689 1.625 13.0002 1.625ZM13.0002 3.79167C12.0078 3.79167 11.1649 4.03703 10.4725 4.50115C9.78224 4.96386 9.21878 5.65991 8.81359 6.58227C8.36656 7.59989 8.12516 8.86538 8.12516 10.3235V15.6765C8.12516 17.1347 8.36656 18.4001 8.81359 19.4178C9.21878 20.3401 9.78224 21.0362 10.4725 21.4989C11.1649 21.963 12.0078 22.2083 13.0002 22.2083C13.9925 22.2083 14.8354 21.963 15.5278 21.4989C16.2181 21.0362 16.7815 20.3401 17.1867 19.4178C17.6338 18.4001 17.8752 17.1347 17.8752 15.6765V10.3235C17.8752 8.86538 17.6338 7.59989 17.1867 6.58227C16.7815 5.65991 16.2181 4.96386 15.5278 4.50115C14.8354 4.03703 13.9925 3.79167 13.0002 3.79167Z" fill="white"/>
</g>
<defs>
<clipPath id="clip0_788_4191">
<rect width="26" height="26" fill="white"/>
</clipPath>
</defs>
</svg>
