<svg width="22" height="22" viewBox="0 0 22 22" fill="none" xmlns="http://www.w3.org/2000/svg">
<g id="Frame" clip-path="url(#clip0_788_4269)">
<g id="search_line">
<path id="Vector" fill-rule="evenodd" clip-rule="evenodd" d="M9.62499 1.83333C8.38253 1.83343 7.15811 2.13066 6.05389 2.70021C4.94967 3.26977 3.99766 4.09513 3.27729 5.10744C2.55692 6.11974 2.08908 7.28965 1.9128 8.51954C1.73653 9.74942 1.85693 11.0036 2.26395 12.1775C2.67098 13.3514 3.35283 14.411 4.25262 15.2677C5.15241 16.1245 6.24405 16.7537 7.43646 17.1028C8.62887 17.4519 9.88747 17.5108 11.1073 17.2745C12.327 17.0382 13.4726 16.5137 14.4485 15.7447L17.7962 19.0923C17.969 19.2593 18.2006 19.3517 18.4409 19.3496C18.6813 19.3475 18.9112 19.2511 19.0812 19.0812C19.2511 18.9112 19.3475 18.6813 19.3496 18.4409C19.3517 18.2006 19.2593 17.969 19.0923 17.7962L15.7447 14.4485C16.6503 13.2996 17.2142 11.9189 17.3718 10.4644C17.5294 9.00996 17.2744 7.54051 16.6359 6.22425C15.9973 4.90798 15.0011 3.79807 13.7613 3.02154C12.5214 2.24501 11.088 1.83323 9.62499 1.83333ZM3.66665 9.625C3.66665 8.04475 4.29441 6.52922 5.41181 5.41182C6.52921 4.29441 8.04474 3.66666 9.62499 3.66666C11.2052 3.66666 12.7208 4.29441 13.8382 5.41182C14.9556 6.52922 15.5833 8.04475 15.5833 9.625C15.5833 11.2052 14.9556 12.7208 13.8382 13.8382C12.7208 14.9556 11.2052 15.5833 9.62499 15.5833C8.04474 15.5833 6.52921 14.9556 5.41181 13.8382C4.29441 12.7208 3.66665 11.2052 3.66665 9.625Z" fill="white"/>
</g>
</g>
<defs>
<clipPath id="clip0_788_4269">
<rect width="22" height="22" fill="white"/>
</clipPath>
</defs>
</svg>
