<svg width="26" height="26" viewBox="0 0 26 26" fill="none" xmlns="http://www.w3.org/2000/svg">
<g id="Media / Play" clip-path="url(#clip0_788_4139)">
<path id="Vector" d="M5.4165 18.7781V7.22257C5.4165 6.2697 5.4165 5.79274 5.61702 5.51081C5.79203 5.26475 6.06178 5.1032 6.36125 5.06457C6.70424 5.02033 7.12493 5.24469 7.96509 5.69278L18.7984 11.4706L18.8024 11.4723C19.7308 11.9675 20.1953 12.2152 20.3476 12.5454C20.4805 12.8334 20.4805 13.1658 20.3476 13.4538C20.1951 13.7845 19.7295 14.0332 18.7984 14.5298L7.96509 20.3076C7.12433 20.756 6.70437 20.9795 6.36125 20.9352C6.06178 20.8966 5.79203 20.7351 5.61702 20.489C5.4165 20.2071 5.4165 19.731 5.4165 18.7781Z" stroke="white" stroke-width="2" stroke-linecap="round" stroke-linejoin="round"/>
</g>
<defs>
<clipPath id="clip0_788_4139">
<rect width="26" height="26" fill="white"/>
</clipPath>
</defs>
</svg>
