<svg width="26" height="26" viewBox="0 0 26 26" fill="none" xmlns="http://www.w3.org/2000/svg">
<g id="Frame" clip-path="url(#clip0_788_4151)">
<g id="exit_line">
<path id="Vector" d="M13.0002 3.25C13.2763 3.25031 13.5419 3.35604 13.7426 3.54559C13.9434 3.73514 14.0642 3.9942 14.0804 4.26984C14.0966 4.54549 14.0069 4.81691 13.8297 5.02865C13.6525 5.24039 13.4011 5.37647 13.1269 5.40908L13.0002 5.41667H7.5835C7.31815 5.4167 7.06205 5.51412 6.86376 5.69044C6.66547 5.86676 6.53879 6.10973 6.50775 6.37325L6.50016 6.5V19.5C6.5002 19.7653 6.59761 20.0214 6.77394 20.2197C6.95026 20.418 7.19322 20.5447 7.45675 20.5758L7.5835 20.5833H12.4585C12.7346 20.5836 13.0002 20.6894 13.201 20.8789C13.4018 21.0685 13.5226 21.3275 13.5388 21.6032C13.5549 21.8788 13.4653 22.1502 13.288 22.362C13.1108 22.5737 12.8594 22.7098 12.5852 22.7424L12.4585 22.75H7.5835C6.75452 22.75 5.95685 22.4333 5.35371 21.8646C4.75057 21.2959 4.38755 20.5182 4.33891 19.6907L4.3335 19.5V6.5C4.33345 5.67102 4.65018 4.87336 5.21889 4.27022C5.78759 3.66708 6.56528 3.30405 7.39283 3.25542L7.5835 3.25H13.0002ZM19.1827 9.16933L22.2464 12.2341C22.4495 12.4372 22.5636 12.7127 22.5636 13C22.5636 13.2873 22.4495 13.5628 22.2464 13.7659L19.1827 16.8307C18.9795 17.0338 18.7038 17.1479 18.4164 17.1478C18.1291 17.1477 17.8535 17.0334 17.6504 16.8301C17.4472 16.6268 17.3332 16.3512 17.3333 16.0638C17.3334 15.7764 17.4476 15.5009 17.6509 15.2978L18.8653 14.0833H13.0002C12.7128 14.0833 12.4373 13.9692 12.2341 13.766C12.031 13.5629 11.9168 13.2873 11.9168 13C11.9168 12.7127 12.031 12.4371 12.2341 12.234C12.4373 12.0308 12.7128 11.9167 13.0002 11.9167H18.8653L17.6509 10.7023C17.4476 10.4991 17.3334 10.2236 17.3333 9.93618C17.3332 9.6488 17.4472 9.37315 17.6504 9.16988C17.8535 8.9666 18.1291 8.85234 18.4164 8.85224C18.7038 8.85214 18.9795 8.9662 19.1827 9.16933Z" fill="white"/>
</g>
</g>
<defs>
<clipPath id="clip0_788_4151">
<rect width="26" height="26" fill="white"/>
</clipPath>
</defs>
</svg>
