<svg width="22" height="22" viewBox="0 0 22 22" fill="none" xmlns="http://www.w3.org/2000/svg">
<g id="Frame" clip-path="url(#clip0_788_4231)">
<g id="list_ordered_line">
<path id="Vector" d="M4.98281 15.3267C5.22545 15.3271 5.46345 15.3932 5.67155 15.518C5.87965 15.6428 6.05007 15.8216 6.16475 16.0354C6.27942 16.2492 6.33406 16.4901 6.32286 16.7325C6.31166 16.9749 6.23504 17.2097 6.10114 17.4121C6.23504 17.6144 6.31166 17.8493 6.32286 18.0916C6.33406 18.334 6.27942 18.5749 6.16475 18.7888C6.05007 19.0026 5.87965 19.1814 5.67155 19.3062C5.46345 19.431 5.22545 19.4971 4.98281 19.4975C4.38698 19.4975 3.91673 19.2427 3.67473 18.6716C3.64136 18.5991 3.62288 18.5208 3.62037 18.441C3.61786 18.3613 3.63138 18.2819 3.66012 18.2075C3.68887 18.1332 3.73226 18.0653 3.78771 18.008C3.84317 17.9507 3.90957 17.9051 3.98297 17.8739C4.05637 17.8427 4.13529 17.8266 4.21504 17.8265C4.29479 17.8264 4.37375 17.8422 4.44724 17.8732C4.52074 17.9042 4.58727 17.9496 4.64289 18.0067C4.69851 18.0639 4.7421 18.1316 4.77106 18.2059C4.78367 18.2356 4.80473 18.2609 4.83163 18.2787C4.85853 18.2964 4.89007 18.3059 4.92231 18.3058C5.02223 18.3058 5.13314 18.2783 5.13314 18.1528C5.13314 18.0611 5.06623 18.0217 4.99014 18.0116L4.94339 18.0079C4.79287 18.0081 4.64784 17.9513 4.53747 17.849C4.42709 17.7466 4.35954 17.6063 4.3484 17.4562C4.33725 17.3061 4.38334 17.1573 4.47739 17.0398C4.57144 16.9223 4.70649 16.8447 4.85539 16.8227L4.94339 16.8162C5.03689 16.8162 5.13314 16.7823 5.13314 16.6714C5.13314 16.5458 5.02314 16.5183 4.92231 16.5183C4.89012 16.5185 4.85871 16.5282 4.83198 16.5461C4.80525 16.5641 4.78438 16.5895 4.77198 16.6192C4.7101 16.7647 4.59296 16.8796 4.44632 16.9388C4.29969 16.9979 4.13556 16.9964 3.99006 16.9345C3.84455 16.8726 3.72959 16.7555 3.67045 16.6088C3.61132 16.4622 3.61285 16.2981 3.67473 16.1526C3.91673 15.5824 4.38698 15.3276 4.98281 15.3276V15.3267ZM18.3331 16.5C18.5763 16.5 18.8094 16.5966 18.9813 16.7685C19.1532 16.9404 19.2498 17.1736 19.2498 17.4167C19.2498 17.6598 19.1532 17.8929 18.9813 18.0648C18.8094 18.2368 18.5763 18.3333 18.3331 18.3333H8.24981C8.00669 18.3333 7.77354 18.2368 7.60163 18.0648C7.42972 17.8929 7.33314 17.6598 7.33314 17.4167C7.33314 17.1736 7.42972 16.9404 7.60163 16.7685C7.77354 16.5966 8.00669 16.5 8.24981 16.5H18.3331ZM5.57314 9.11625C5.76952 9.21629 5.93998 9.36059 6.07106 9.53776C6.20214 9.71494 6.29027 9.92014 6.32849 10.1372C6.36671 10.3543 6.35398 10.5772 6.2913 10.7885C6.22862 10.9998 6.11771 11.1936 5.96731 11.3548L5.45948 11.8983H5.89031C6.04833 11.8983 6.19989 11.9611 6.31163 12.0728C6.42337 12.1846 6.48614 12.3361 6.48614 12.4942C6.48614 12.6522 6.42337 12.8037 6.31163 12.9155C6.19989 13.0272 6.04833 13.09 5.89031 13.09H4.19173C4.03264 13.09 3.88006 13.0269 3.76749 12.9145C3.65492 12.8021 3.59155 12.6496 3.59131 12.4905C3.59131 12.3008 3.61789 12.1248 3.75356 11.9799L5.09556 10.5417C5.19639 10.4344 5.17073 10.2474 5.04056 10.1823C4.91589 10.12 4.81231 10.1915 4.78848 10.3125L4.78298 10.3666C4.78298 10.4448 4.76756 10.5223 4.73762 10.5946C4.70768 10.6669 4.66379 10.7326 4.60846 10.7879C4.55313 10.8432 4.48745 10.8871 4.41516 10.9171C4.34287 10.947 4.26539 10.9624 4.18714 10.9624C3.82964 10.9624 3.59131 10.6627 3.59131 10.3235C3.59119 10.0903 3.65112 9.86098 3.76531 9.65764C3.8795 9.4543 4.04412 9.28378 4.24331 9.16249C4.4425 9.04121 4.66956 8.97325 4.90263 8.96515C5.1357 8.95705 5.36601 9.00909 5.57314 9.11625ZM18.3331 10.0833C18.5668 10.0836 18.7915 10.1731 18.9614 10.3334C19.1313 10.4938 19.2335 10.713 19.2472 10.9463C19.2609 11.1795 19.185 11.4092 19.0351 11.5883C18.8851 11.7675 18.6724 11.8827 18.4404 11.9103L18.3331 11.9167H8.24981C8.01617 11.9164 7.79145 11.8269 7.62155 11.6666C7.45166 11.5062 7.34943 11.287 7.33573 11.0537C7.32204 10.8205 7.39793 10.5908 7.54788 10.4117C7.69784 10.2325 7.91055 10.1173 8.14256 10.0898L8.24981 10.0833H18.3331ZM5.63731 3.1075V6.0775C5.63731 6.23553 5.57453 6.38708 5.46279 6.49882C5.35105 6.61056 5.1995 6.67333 5.04148 6.67333C4.88345 6.67333 4.7319 6.61056 4.62016 6.49882C4.50842 6.38708 4.44564 6.23553 4.44564 6.0775V4.14517C4.31157 4.16585 4.17446 4.14016 4.05697 4.07235C3.93948 4.00454 3.84864 3.89867 3.79948 3.77223C3.75032 3.6458 3.74577 3.50637 3.78659 3.37701C3.82741 3.24764 3.91115 3.13607 4.02398 3.06075L4.70414 2.607C4.79456 2.5468 4.89962 2.51226 5.00812 2.50705C5.11663 2.50185 5.22451 2.52617 5.32028 2.57745C5.41604 2.62872 5.49611 2.70501 5.55194 2.79819C5.60777 2.89137 5.63727 2.99796 5.63731 3.10658V3.1075ZM18.3331 3.66667C18.5668 3.66693 18.7915 3.75639 18.9614 3.91678C19.1313 4.07717 19.2335 4.29637 19.2472 4.52961C19.2609 4.76285 19.185 4.99251 19.0351 5.17168C18.8851 5.35085 18.6724 5.46599 18.4404 5.49358L18.3331 5.5H8.24981C8.01617 5.49974 7.79145 5.41028 7.62155 5.24989C7.45166 5.0895 7.34943 4.87029 7.33573 4.63706C7.32204 4.40382 7.39793 4.17415 7.54788 3.99499C7.69784 3.81582 7.91055 3.70068 8.14256 3.67308L8.24981 3.66667H18.3331Z" fill="white"/>
</g>
</g>
<defs>
<clipPath id="clip0_788_4231">
<rect width="22" height="22" fill="white"/>
</clipPath>
</defs>
</svg>
