<svg width="26" height="26" viewBox="0 0 26 26" fill="none" xmlns="http://www.w3.org/2000/svg">
<g id="Frame" clip-path="url(#clip0_788_4219)">
<path id="Vector" d="M13.0002 1.625C16.2909 1.625 18.9585 4.29263 18.9585 7.58333C18.9585 9.50711 18.0468 11.2179 16.6318 12.3073C18.6756 13.4432 20.0418 15.5118 20.0418 17.875C20.0418 21.4648 16.8892 24.375 13.0002 24.375C9.11116 24.375 5.9585 21.4648 5.9585 17.875C5.9585 15.5118 7.32469 13.4432 9.36778 12.3055C7.95354 11.2179 7.04183 9.50711 7.04183 7.58333C7.04183 4.29263 9.70946 1.625 13.0002 1.625ZM13.0002 13.5417C10.2708 13.5417 8.12516 15.5222 8.12516 17.875C8.12516 20.2278 10.2708 22.2083 13.0002 22.2083C15.7295 22.2083 17.8752 20.2278 17.8752 17.875C17.8752 15.5222 15.7295 13.5417 13.0002 13.5417ZM13.0002 3.79167C10.9061 3.79167 9.2085 5.48925 9.2085 7.58333C9.2085 9.67742 10.9061 11.375 13.0002 11.375C15.0942 11.375 16.7918 9.67742 16.7918 7.58333C16.7918 5.48925 15.0942 3.79167 13.0002 3.79167Z" fill="white"/>
</g>
<defs>
<clipPath id="clip0_788_4219">
<rect width="26" height="26" fill="white"/>
</clipPath>
</defs>
</svg>
