<svg width="22" height="22" viewBox="0 0 22 22" fill="none" xmlns="http://www.w3.org/2000/svg">
<g id="Frame" clip-path="url(#clip0_788_4211)">
<g id="live_photo_line">
<path id="Vector" d="M11.1752 18.3315C11.2956 18.3287 11.4154 18.3496 11.5277 18.393C11.64 18.4365 11.7426 18.5016 11.8297 18.5848C11.9169 18.6679 11.9868 18.7673 12.0354 18.8775C12.0841 18.9876 12.1106 19.1062 12.1135 19.2266C12.1163 19.347 12.0954 19.4668 12.0519 19.5791C12.0085 19.6914 11.9433 19.794 11.8602 19.8811C11.7771 19.9682 11.6776 20.0381 11.5675 20.0868C11.4573 20.1355 11.3387 20.162 11.2183 20.1648L11.0002 20.1667L10.782 20.1639C10.6616 20.1611 10.543 20.1346 10.4328 20.0859C10.3227 20.0372 10.2232 19.9673 10.1401 19.8802C10.057 19.7931 9.99186 19.6904 9.9484 19.5781C9.90495 19.4658 9.88404 19.3461 9.88687 19.2257C9.8897 19.1053 9.91621 18.9867 9.96489 18.8766C10.0136 18.7664 10.0835 18.667 10.1706 18.5838C10.2577 18.5007 10.3603 18.4356 10.4726 18.3921C10.5849 18.3487 10.7047 18.3278 10.8251 18.3306L11.0002 18.3333L11.1752 18.3315ZM16.0767 17.5679C16.1395 17.6707 16.1814 17.7848 16.2001 17.9037C16.2188 18.0227 16.2139 18.1441 16.1856 18.2612C16.1574 18.3782 16.1063 18.4886 16.0354 18.5859C15.9645 18.6832 15.8751 18.7656 15.7723 18.8283C15.6482 18.904 15.5223 18.9768 15.3947 19.0465C15.289 19.1043 15.1731 19.1407 15.0533 19.1536C14.9336 19.1666 14.8126 19.1559 14.697 19.122C14.4636 19.0537 14.267 18.8955 14.1503 18.6821C14.0336 18.4688 14.0064 18.2178 14.0748 17.9845C14.1431 17.7511 14.3013 17.5544 14.5147 17.4377C14.6164 17.3827 14.7172 17.3241 14.8172 17.2636C15.0246 17.137 15.2737 17.098 15.5099 17.1551C15.7461 17.2121 15.9499 17.3606 16.0767 17.5679ZM7.18408 17.2636C7.28308 17.3241 7.38391 17.3827 7.48658 17.4377C7.69991 17.5546 7.8581 17.7513 7.92635 17.9848C7.9946 18.2182 7.96731 18.4692 7.8505 18.6826C7.73368 18.8959 7.5369 19.0541 7.30345 19.1224C7.07 19.1906 6.819 19.1633 6.60566 19.0465C6.47733 18.9768 6.35175 18.9035 6.228 18.8283C6.0205 18.7015 5.87186 18.4975 5.81479 18.2612C5.75771 18.0248 5.79688 17.7754 5.92366 17.5679C6.05045 17.3604 6.25447 17.2118 6.49084 17.1547C6.72722 17.0976 6.97658 17.1368 7.18408 17.2636ZM11.0002 5.5C12.4589 5.5 13.8578 6.07946 14.8892 7.11091C15.9207 8.14236 16.5002 9.54131 16.5002 11C16.5002 12.4587 15.9207 13.8576 14.8892 14.8891C13.8578 15.9205 12.4589 16.5 11.0002 16.5C9.54147 16.5 8.14253 15.9205 7.11108 14.8891C6.07963 13.8576 5.50016 12.4587 5.50016 11C5.50016 9.54131 6.07963 8.14236 7.11108 7.11091C8.14253 6.07946 9.54147 5.5 11.0002 5.5ZM18.6818 14.1506C18.8952 14.2672 19.0534 14.4637 19.1219 14.697C19.1903 14.9303 19.1632 15.1812 19.0467 15.3945C18.977 15.5228 18.9037 15.6484 18.8285 15.7722C18.7657 15.8749 18.6833 15.9643 18.586 16.0352C18.4887 16.1061 18.3784 16.1571 18.2613 16.1854C18.0249 16.2424 17.7756 16.2033 17.5681 16.0765C17.3606 15.9497 17.2119 15.7457 17.1549 15.5093C17.0978 15.2729 17.137 15.0236 17.2637 14.8161C17.3242 14.7171 17.3829 14.6162 17.4379 14.5136C17.4958 14.408 17.5739 14.3148 17.6678 14.2394C17.7617 14.164 17.8695 14.1079 17.9851 14.0742C18.1007 14.0405 18.2218 14.0299 18.3415 14.043C18.4612 14.0561 18.5772 14.0927 18.6827 14.1506H18.6818ZM4.56241 14.5145C4.61741 14.6162 4.67608 14.7171 4.73658 14.817C4.80071 14.9198 4.84383 15.0342 4.86346 15.1538C4.88308 15.2733 4.87882 15.3955 4.85092 15.5134C4.82302 15.6313 4.77203 15.7425 4.7009 15.8405C4.62976 15.9386 4.5399 16.0216 4.43651 16.0847C4.33311 16.1478 4.21823 16.1898 4.09851 16.2083C3.97879 16.2267 3.85659 16.2212 3.73899 16.1922C3.62139 16.1631 3.51072 16.111 3.41337 16.0389C3.31602 15.9669 3.23392 15.8762 3.17183 15.7722C3.09611 15.648 3.02337 15.5221 2.95366 15.3945C2.83697 15.1812 2.8098 14.9302 2.87813 14.6968C2.94647 14.4635 3.1047 14.2668 3.31804 14.1501C3.53137 14.0334 3.78232 14.0063 4.01569 14.0746C4.24906 14.1429 4.44572 14.3012 4.56241 14.5145ZM11.0002 7.33333C10.0277 7.33333 9.09507 7.71964 8.40744 8.40727C7.7198 9.09491 7.3335 10.0275 7.3335 11C7.3335 11.9725 7.7198 12.9051 8.40744 13.5927C9.09507 14.2804 10.0277 14.6667 11.0002 14.6667C11.9726 14.6667 12.9053 14.2804 13.5929 13.5927C14.2805 12.9051 14.6668 11.9725 14.6668 11C14.6668 10.0275 14.2805 9.09491 13.5929 8.40727C12.9053 7.71964 11.9726 7.33333 11.0002 7.33333ZM11.0002 9.16667C11.4864 9.16667 11.9527 9.35982 12.2965 9.70364C12.6403 10.0475 12.8335 10.5138 12.8335 11C12.8335 11.4862 12.6403 11.9525 12.2965 12.2964C11.9527 12.6402 11.4864 12.8333 11.0002 12.8333C10.5139 12.8333 10.0476 12.6402 9.7038 12.2964C9.35998 11.9525 9.16683 11.4862 9.16683 11C9.16683 10.5138 9.35998 10.0475 9.7038 9.70364C10.0476 9.35982 10.5139 9.16667 11.0002 9.16667ZM2.774 9.88625C2.89439 9.8891 3.01303 9.91565 3.12316 9.96438C3.23328 10.0131 3.33273 10.083 3.41581 10.1702C3.4989 10.2574 3.56399 10.3601 3.60738 10.4724C3.65076 10.5847 3.67159 10.7045 3.66866 10.8249L3.66683 11C3.66683 11.0587 3.66683 11.1173 3.66866 11.1751C3.67438 11.4182 3.58328 11.6536 3.41541 11.8296C3.24754 12.0055 3.01665 12.1076 2.77354 12.1133C2.53042 12.119 2.295 12.0279 2.11905 11.86C1.9431 11.6922 1.84104 11.4613 1.83533 11.2182L1.8335 11C1.8335 10.9267 1.8335 10.8533 1.83625 10.7818C1.83898 10.6614 1.86541 10.5428 1.91403 10.4326C1.96264 10.3224 2.03249 10.2229 2.11957 10.1398C2.20666 10.0566 2.30927 9.99139 2.42156 9.94789C2.53385 9.9044 2.65361 9.88345 2.774 9.88625ZM19.2263 9.88625C19.3467 9.88345 19.4665 9.9044 19.5788 9.94789C19.6911 9.99139 19.7937 10.0566 19.8808 10.1398C19.9678 10.2229 20.0377 10.3224 20.0863 10.4326C20.1349 10.5428 20.1613 10.6614 20.1641 10.7818L20.1668 11L20.1641 11.2182C20.1612 11.3385 20.1347 11.4572 20.0861 11.5673C20.0374 11.6775 19.9675 11.7769 19.8804 11.86C19.7932 11.9432 19.6906 12.0083 19.5783 12.0518C19.466 12.0952 19.3462 12.1161 19.2259 12.1133C19.1055 12.1105 18.9868 12.084 18.8767 12.0353C18.7666 11.9866 18.6671 11.9167 18.584 11.8296C18.5009 11.7425 18.4357 11.6398 18.3923 11.5275C18.3488 11.4152 18.3279 11.2955 18.3307 11.1751L18.3335 11L18.3317 10.8249C18.3287 10.7045 18.3496 10.5847 18.3929 10.4724C18.4363 10.3601 18.5014 10.2574 18.5845 10.1702C18.6676 10.083 18.767 10.0131 18.8772 9.96438C18.9873 9.91565 19.1059 9.8891 19.2263 9.88625ZM18.8285 6.22783C18.9037 6.35158 18.977 6.47808 19.0467 6.6055C19.1044 6.71113 19.1409 6.82711 19.1538 6.94681C19.1668 7.06652 19.156 7.1876 19.1222 7.30315C19.0884 7.4187 19.0321 7.52646 18.9566 7.62026C18.8811 7.71407 18.7879 7.79209 18.6823 7.84987C18.469 7.96657 18.218 7.99374 17.9846 7.92541C17.7513 7.85707 17.5546 7.69883 17.4379 7.4855C17.3823 7.3833 17.3242 7.28243 17.2637 7.183C17.1996 7.08023 17.1565 6.96577 17.1369 6.84623C17.1172 6.7267 17.1215 6.60445 17.1494 6.48657C17.1773 6.36869 17.2283 6.25751 17.2994 6.15946C17.3706 6.06141 17.4604 5.97842 17.5638 5.91531C17.6672 5.85219 17.7821 5.8102 17.9018 5.79175C18.0215 5.7733 18.1437 5.77876 18.2613 5.80782C18.3789 5.83688 18.4896 5.88897 18.587 5.96106C18.6843 6.03315 18.7664 6.12382 18.8285 6.22783ZM4.43225 5.9235C4.53501 5.98626 4.6244 6.06865 4.69531 6.16596C4.76622 6.26328 4.81727 6.37361 4.84553 6.49066C4.87379 6.60771 4.87872 6.72918 4.86002 6.84813C4.84133 6.96708 4.79938 7.08118 4.73658 7.18392C4.67608 7.28292 4.61741 7.38375 4.56241 7.48642C4.4456 7.69975 4.24882 7.85794 4.01537 7.92619C3.78191 7.99444 3.53091 7.96715 3.31758 7.85033C3.10425 7.73352 2.94606 7.53674 2.87781 7.30329C2.80956 7.06983 2.83685 6.81883 2.95366 6.6055C3.02333 6.47717 3.09666 6.35158 3.17183 6.22783C3.23459 6.12507 3.31698 6.03568 3.41429 5.96477C3.51161 5.89385 3.62194 5.84281 3.73899 5.81455C3.85604 5.78629 3.97751 5.78136 4.09646 5.80006C4.21541 5.81875 4.32951 5.8607 4.43225 5.9235ZM15.3947 2.9535C15.523 3.02317 15.6486 3.0965 15.7723 3.17167C15.9798 3.29845 16.1285 3.50247 16.1855 3.73885C16.2426 3.97522 16.2034 4.22458 16.0767 4.43208C15.9499 4.63958 15.7459 4.78822 15.5095 4.84529C15.2731 4.90236 15.0237 4.8632 14.8162 4.73642C14.7168 4.67596 14.616 4.61789 14.5137 4.56225C14.3004 4.44543 14.1422 4.24865 14.074 4.0152C14.0057 3.78175 14.033 3.53075 14.1498 3.31742C14.2666 3.10408 14.4634 2.94589 14.6969 2.87764C14.9303 2.8094 15.1813 2.83668 15.3947 2.9535ZM7.8505 3.31742C7.90836 3.42309 7.94482 3.53913 7.95779 3.65891C7.97077 3.77869 7.96001 3.89985 7.92613 4.01546C7.89224 4.13108 7.8359 4.23888 7.76032 4.3327C7.68474 4.42652 7.59141 4.50453 7.48566 4.56225C7.38346 4.61789 7.2826 4.67596 7.18316 4.73642C6.97594 4.85583 6.73024 4.88952 6.49852 4.83031C6.2668 4.77109 6.0674 4.62365 5.94287 4.41945C5.81834 4.21526 5.77855 3.97048 5.832 3.73736C5.88544 3.50423 6.02787 3.30123 6.22891 3.17167C6.35266 3.0965 6.47916 3.02317 6.60658 2.9535C6.8198 2.83686 7.07062 2.80968 7.30388 2.87792C7.53714 2.94616 7.73376 3.10425 7.8505 3.31742ZM11.2183 1.83608C11.4614 1.8418 11.6923 1.94385 11.8602 2.1198C12.0281 2.29575 12.1192 2.53118 12.1135 2.77429C12.1077 3.01741 12.0057 3.24829 11.8297 3.41616C11.6538 3.58403 11.4184 3.67513 11.1752 3.66942L11.0002 3.66667L10.8251 3.6685C10.582 3.67421 10.3465 3.58311 10.1706 3.41525C9.99464 3.24738 9.89258 3.01649 9.88687 2.77337C9.88116 2.53026 9.97226 2.29483 10.1401 2.11888C10.308 1.94294 10.5389 1.84088 10.782 1.83517L11.0002 1.83333L11.2183 1.83608Z" fill="white"/>
</g>
</g>
<defs>
<clipPath id="clip0_788_4211">
<rect width="22" height="22" fill="white"/>
</clipPath>
</defs>
</svg>
