<svg width="26" height="26" viewBox="0 0 26 26" fill="none" xmlns="http://www.w3.org/2000/svg">
<g id="Frame" clip-path="url(#clip0_788_4195)">
<path id="Vector" d="M16.1267 2.16667L11.319 10.4936C11.8577 10.3616 12.4208 10.2917 13.0002 10.2917C16.8892 10.2917 20.0418 13.4443 20.0418 17.3333C20.0418 21.2224 16.8892 24.375 13.0002 24.375C9.11116 24.375 5.9585 21.2224 5.9585 17.3333C5.9585 16.0278 6.31375 14.8054 6.93286 13.7573L13.6242 2.16667H16.1267ZM13.0002 12.4583C10.3078 12.4583 8.12516 14.6409 8.12516 17.3333C8.12516 20.0257 10.3078 22.2083 13.0002 22.2083C15.6926 22.2083 17.8752 20.0257 17.8752 17.3333C17.8752 14.6409 15.6926 12.4583 13.0002 12.4583Z" fill="white"/>
</g>
<defs>
<clipPath id="clip0_788_4195">
<rect width="26" height="26" fill="white"/>
</clipPath>
</defs>
</svg>
