<svg width="26" height="26" viewBox="0 0 26 26" fill="none" xmlns="http://www.w3.org/2000/svg">
<g id="Frame" clip-path="url(#clip0_788_4183)">
<path id="Vector" d="M13.0002 1.625C16.8892 1.625 20.0418 4.77766 20.0418 8.66667C20.0418 9.95821 19.6941 11.1685 19.0872 12.2092L12.3751 23.8323H9.87366L14.6824 15.5062C14.1434 15.6382 13.58 15.7083 13.0002 15.7083C9.11116 15.7083 5.9585 12.5557 5.9585 8.66667C5.9585 4.77766 9.11116 1.625 13.0002 1.625ZM13.0002 3.79167C10.3078 3.79167 8.12516 5.97428 8.12516 8.66667C8.12516 11.3591 10.3078 13.5417 13.0002 13.5417C15.6926 13.5417 17.8752 11.3591 17.8752 8.66667C17.8752 5.97428 15.6926 3.79167 13.0002 3.79167Z" fill="white"/>
</g>
<defs>
<clipPath id="clip0_788_4183">
<rect width="26" height="26" fill="white"/>
</clipPath>
</defs>
</svg>
