<svg width="26" height="26" viewBox="0 0 26 26" fill="none" xmlns="http://www.w3.org/2000/svg">
<g id="Frame" clip-path="url(#clip0_788_4207)">
<path id="Vector" d="M19.5003 2.16667V3.64236L13.8763 10.3456C17.3518 10.7769 20.042 13.741 20.042 17.3333C20.042 21.2224 16.8893 24.375 13.0003 24.375C9.70074 24.375 6.93125 22.1056 6.16748 19.0426L8.26984 18.5166C8.79856 20.6372 10.7159 22.2083 13.0003 22.2083C15.6926 22.2083 17.8753 20.0257 17.8753 17.3333C17.8753 14.6409 15.6926 12.4583 13.0003 12.4583C12.2197 12.4583 11.4819 12.6419 10.8277 12.968L10.581 13.1L9.83368 11.7923L16.0932 4.33244L7.04194 4.33334V2.16667H19.5003Z" fill="white"/>
</g>
<defs>
<clipPath id="clip0_788_4207">
<rect width="26" height="26" fill="white"/>
</clipPath>
</defs>
</svg>
