<svg width="26" height="26" viewBox="0 0 26 26" fill="none" xmlns="http://www.w3.org/2000/svg">
<g id="Media / Pause" clip-path="url(#clip0_788_4143)">
<g id="Vector">
<path d="M16.2502 5.95833V20.0417C16.2502 20.545 16.2502 20.7967 16.2918 21.006C16.4628 21.8655 17.1342 22.5378 17.9937 22.7087C18.2029 22.7504 18.4546 22.7504 18.958 22.7504C19.4614 22.7504 19.714 22.7504 19.9233 22.7087C20.7828 22.5378 21.4546 21.8655 21.6256 21.006C21.6668 20.7986 21.6668 20.5495 21.6668 20.0549V5.94508C21.6668 5.45052 21.6668 5.20094 21.6256 4.99349C21.4546 4.13399 20.7824 3.4626 19.9229 3.29163C19.7136 3.25 19.4619 3.25 18.9585 3.25C18.4551 3.25 18.203 3.25 17.9937 3.29163C17.1342 3.4626 16.4628 4.13399 16.2918 4.99349C16.2502 5.20279 16.2502 5.45496 16.2502 5.95833Z" stroke="white" stroke-width="2" stroke-linecap="round" stroke-linejoin="round"/>
<path d="M4.3335 5.95833V20.0417C4.3335 20.545 4.3335 20.7967 4.37513 21.006C4.54609 21.8655 5.21749 22.5378 6.07699 22.7087C6.28628 22.7504 6.53797 22.7504 7.04135 22.7504C7.54472 22.7504 7.79738 22.7504 8.00667 22.7087C8.86617 22.5378 9.53794 21.8655 9.7089 21.006C9.75017 20.7986 9.75017 20.5495 9.75016 20.0549V5.94508C9.75017 5.45052 9.75017 5.20094 9.7089 4.99349C9.53794 4.13399 8.86569 3.4626 8.00619 3.29163C7.79689 3.25 7.54521 3.25 7.04183 3.25C6.53845 3.25 6.28628 3.25 6.07699 3.29163C5.21749 3.4626 4.54609 4.13399 4.37513 4.99349C4.3335 5.20279 4.3335 5.45496 4.3335 5.95833Z" stroke="white" stroke-width="2" stroke-linecap="round" stroke-linejoin="round"/>
</g>
</g>
<defs>
<clipPath id="clip0_788_4143">
<rect width="26" height="26" fill="white"/>
</clipPath>
</defs>
</svg>
