<svg width="22" height="22" viewBox="0 0 22 22" fill="none" xmlns="http://www.w3.org/2000/svg">
<g id="Frame" clip-path="url(#clip0_788_4331)">
<g id="keyboard_line">
<path id="Vector" d="M18.3335 3.66667C18.796 3.66653 19.2415 3.84121 19.5807 4.15571C19.9198 4.47021 20.1276 4.90128 20.1622 5.36251L20.1668 5.50001V16.5C20.167 16.9625 19.9923 17.408 19.6778 17.7472C19.3633 18.0863 18.9322 18.2941 18.471 18.3288L18.3335 18.3333H3.66683C3.2043 18.3335 2.75881 18.1588 2.41966 17.8443C2.08051 17.5298 1.87277 17.0987 1.83808 16.6375L1.8335 16.5V5.50001C1.83335 5.03748 2.00804 4.59199 2.32253 4.25284C2.63703 3.91369 3.0681 3.70594 3.52933 3.67126L3.66683 3.66667H18.3335ZM18.3335 5.50001H3.66683V16.5H18.3335V5.50001ZM15.5835 12.8333C15.8171 12.8336 16.0419 12.9231 16.2117 13.0834C16.3816 13.2438 16.4839 13.463 16.4976 13.6963C16.5113 13.9295 16.4354 14.1592 16.2854 14.3384C16.1355 14.5175 15.9228 14.6327 15.6907 14.6603L15.5835 14.6667H6.41683C6.18319 14.6664 5.95847 14.5769 5.78857 14.4166C5.61868 14.2562 5.51645 14.037 5.50275 13.8037C5.48906 13.5705 5.56495 13.3408 5.71491 13.1617C5.86486 12.9825 6.07757 12.8673 6.30958 12.8398L6.41683 12.8333H15.5835ZM7.3335 10.0833C7.57661 10.0833 7.80977 10.1799 7.98168 10.3518C8.15359 10.5237 8.25016 10.7569 8.25016 11C8.25016 11.2431 8.15359 11.4763 7.98168 11.6482C7.80977 11.8201 7.57661 11.9167 7.3335 11.9167H6.41683C6.17371 11.9167 5.94056 11.8201 5.76865 11.6482C5.59674 11.4763 5.50016 11.2431 5.50016 11C5.50016 10.7569 5.59674 10.5237 5.76865 10.3518C5.94056 10.1799 6.17371 10.0833 6.41683 10.0833H7.3335ZM11.4585 10.0833C11.6921 10.0836 11.9169 10.1731 12.0868 10.3334C12.2566 10.4938 12.3589 10.713 12.3726 10.9463C12.3863 11.1795 12.3104 11.4092 12.1604 11.5884C12.0105 11.7675 11.7977 11.8827 11.5657 11.9103L11.4585 11.9167H10.5418C10.3082 11.9164 10.0835 11.8269 9.91357 11.6666C9.74368 11.5062 9.64145 11.287 9.62775 11.0537C9.61406 10.8205 9.68995 10.5908 9.8399 10.4117C9.98986 10.2325 10.2026 10.1173 10.4346 10.0898L10.5418 10.0833H11.4585ZM15.5835 10.0833C15.8266 10.0833 16.0598 10.1799 16.2317 10.3518C16.4036 10.5237 16.5002 10.7569 16.5002 11C16.5002 11.2431 16.4036 11.4763 16.2317 11.6482C16.0598 11.8201 15.8266 11.9167 15.5835 11.9167H14.6668C14.4237 11.9167 14.1906 11.8201 14.0186 11.6482C13.8467 11.4763 13.7502 11.2431 13.7502 11C13.7502 10.7569 13.8467 10.5237 14.0186 10.3518C14.1906 10.1799 14.4237 10.0833 14.6668 10.0833H15.5835ZM7.3335 7.33334C7.56714 7.3336 7.79186 7.42306 7.96175 7.58345C8.13164 7.74384 8.23388 7.96305 8.24757 8.19628C8.26126 8.42952 8.18538 8.65919 8.03542 8.83835C7.88546 9.01752 7.67275 9.13266 7.44075 9.16025L7.3335 9.16667H6.41683C6.18319 9.16641 5.95847 9.07695 5.78857 8.91656C5.61868 8.75617 5.51645 8.53696 5.50275 8.30373C5.48906 8.07049 5.56495 7.84082 5.71491 7.66166C5.86486 7.48249 6.07757 7.36735 6.30958 7.33975L6.41683 7.33334H7.3335ZM11.4585 7.33334C11.7016 7.33334 11.9348 7.42992 12.1067 7.60182C12.2786 7.77373 12.3752 8.00689 12.3752 8.25C12.3752 8.49312 12.2786 8.72628 12.1067 8.89819C11.9348 9.07009 11.7016 9.16667 11.4585 9.16667H10.5418C10.2987 9.16667 10.0656 9.07009 9.89365 8.89819C9.72174 8.72628 9.62516 8.49312 9.62516 8.25C9.62516 8.00689 9.72174 7.77373 9.89365 7.60182C10.0656 7.42992 10.2987 7.33334 10.5418 7.33334H11.4585ZM15.5835 7.33334C15.8171 7.3336 16.0419 7.42306 16.2117 7.58345C16.3816 7.74384 16.4839 7.96305 16.4976 8.19628C16.5113 8.42952 16.4354 8.65919 16.2854 8.83835C16.1355 9.01752 15.9228 9.13266 15.6907 9.16025L15.5835 9.16667H14.6668C14.4332 9.16641 14.2085 9.07695 14.0386 8.91656C13.8687 8.75617 13.7664 8.53696 13.7528 8.30373C13.7391 8.07049 13.8149 7.84082 13.9649 7.66166C14.1149 7.48249 14.3276 7.36735 14.5596 7.33975L14.6668 7.33334H15.5835Z" fill="white"/>
</g>
</g>
<defs>
<clipPath id="clip0_788_4331">
<rect width="22" height="22" fill="white"/>
</clipPath>
</defs>
</svg>
