<svg width="22" height="22" viewBox="0 0 22 22" fill="none" xmlns="http://www.w3.org/2000/svg">
<g id="Frame" clip-path="url(#clip0_788_4363)">
<g id="menu_line">
<path id="Vector" d="M18.3333 16.5C18.567 16.5003 18.7917 16.5897 18.9616 16.7501C19.1315 16.9105 19.2337 17.1297 19.2474 17.363C19.2611 17.5962 19.1852 17.8259 19.0353 18.005C18.8853 18.1842 18.6726 18.2993 18.4406 18.3269L18.3333 18.3333H3.66667C3.43303 18.3331 3.2083 18.2436 3.03841 18.0832C2.86852 17.9228 2.76628 17.7036 2.75259 17.4704C2.7389 17.2372 2.81479 17.0075 2.96474 16.8283C3.1147 16.6492 3.32741 16.534 3.55942 16.5064L3.66667 16.5H18.3333ZM18.3333 10.0833C18.5764 10.0833 18.8096 10.1799 18.9815 10.3518C19.1534 10.5237 19.25 10.7569 19.25 11C19.25 11.2431 19.1534 11.4763 18.9815 11.6482C18.8096 11.8201 18.5764 11.9167 18.3333 11.9167H3.66667C3.42355 11.9167 3.19039 11.8201 3.01849 11.6482C2.84658 11.4763 2.75 11.2431 2.75 11C2.75 10.7569 2.84658 10.5237 3.01849 10.3518C3.19039 10.1799 3.42355 10.0833 3.66667 10.0833H18.3333ZM18.3333 3.66667C18.5764 3.66667 18.8096 3.76325 18.9815 3.93516C19.1534 4.10707 19.25 4.34022 19.25 4.58334C19.25 4.82645 19.1534 5.05961 18.9815 5.23152C18.8096 5.40343 18.5764 5.50001 18.3333 5.50001H3.66667C3.42355 5.50001 3.19039 5.40343 3.01849 5.23152C2.84658 5.05961 2.75 4.82645 2.75 4.58334C2.75 4.34022 2.84658 4.10707 3.01849 3.93516C3.19039 3.76325 3.42355 3.66667 3.66667 3.66667H18.3333Z" fill="white"/>
</g>
</g>
<defs>
<clipPath id="clip0_788_4363">
<rect width="22" height="22" fill="white"/>
</clipPath>
</defs>
</svg>
