<svg width="22" height="22" viewBox="0 0 22 22" fill="none" xmlns="http://www.w3.org/2000/svg">
<g id="Frame" clip-path="url(#clip0_788_4343)">
<g id="settings_3_line">
<path id="Vector" fill-rule="evenodd" clip-rule="evenodd" d="M12.8653 2.57492C13.2044 2.33108 13.6811 2.21742 14.1495 2.38883C15.1454 2.75365 16.0703 3.28869 16.883 3.97008C17.2653 4.29092 17.4055 4.75933 17.3633 5.17367C17.2946 5.86392 17.4156 6.53033 17.7483 7.10417C18.0417 7.61475 18.4835 8.01808 19.0225 8.30225L19.2288 8.40308C19.6082 8.5745 19.9456 8.93108 20.0308 9.42333C20.2119 10.4666 20.2119 11.5334 20.0308 12.5767C19.9548 13.0203 19.6733 13.3531 19.3406 13.5401L19.2288 13.5978C18.5963 13.882 18.0793 14.322 17.7474 14.8958C17.4156 15.4706 17.2946 16.1361 17.3633 16.8263C17.4046 17.2407 17.2653 17.71 16.883 18.0299C16.0703 18.7113 15.1454 19.2464 14.1495 19.6112C13.9367 19.6873 13.7084 19.7101 13.4847 19.6777C13.261 19.6453 13.0486 19.5585 12.8662 19.4251C12.3015 19.0208 11.6626 18.7917 10.9998 18.7917C10.3371 18.7917 9.69817 19.0199 9.13442 19.4251C8.95186 19.5587 8.73934 19.6455 8.51545 19.6779C8.29156 19.7104 8.06314 19.6875 7.85017 19.6112C6.8543 19.2464 5.92938 18.7113 5.11667 18.0299C4.94453 17.8837 4.81078 17.6975 4.72706 17.4878C4.64334 17.278 4.61219 17.0509 4.63633 16.8263C4.70508 16.1361 4.58317 15.4697 4.25133 14.8958C3.9491 14.3835 3.50712 13.9679 2.97717 13.6978L2.77092 13.5969C2.56407 13.5053 2.38281 13.3644 2.24299 13.1865C2.10317 13.0087 2.00904 12.7993 1.96883 12.5767C1.78773 11.5334 1.78773 10.4666 1.96883 9.42333C2.04492 8.97967 2.32633 8.64692 2.65908 8.45992L2.77092 8.40308C3.40342 8.118 3.92042 7.67892 4.25225 7.10417C4.58317 6.53033 4.70508 5.86392 4.63633 5.17367C4.61219 4.94909 4.64334 4.72202 4.72706 4.51224C4.81078 4.30246 4.94453 4.11633 5.11667 3.97008C5.92939 3.28869 6.85431 2.75365 7.85017 2.38883C8.06302 2.31278 8.29126 2.28998 8.51496 2.32241C8.73865 2.35485 8.95101 2.44154 9.1335 2.57492C9.69725 2.98008 10.3362 3.20833 10.9998 3.20833C11.6635 3.20833 12.3015 2.98008 12.8653 2.57492ZM13.7425 4.1965C12.9487 4.719 12.0128 5.04167 10.9998 5.04167C9.98692 5.04167 9.051 4.71808 8.25717 4.1965C7.61901 4.45409 7.02035 4.80032 6.47883 5.225C6.53383 6.17192 6.34592 7.14358 5.83992 8.02083C5.333 8.89717 4.58592 9.54525 3.738 9.9715C3.64247 10.6532 3.64247 11.3449 3.738 12.0267C4.58592 12.4529 5.333 13.101 5.83992 13.9792C6.34592 14.8546 6.53383 15.8263 6.47883 16.7732C7.02029 17.1982 7.61896 17.5447 8.25717 17.8026C9.051 17.2801 9.98692 16.9574 10.9998 16.9574C12.0128 16.9574 12.9487 17.281 13.7425 17.8026C14.3806 17.545 14.9793 17.1987 15.5208 16.7741C15.4658 15.8263 15.6538 14.8546 16.1597 13.9783C16.6658 13.101 17.4138 12.4529 18.2617 12.0258C18.3572 11.3446 18.3572 10.6535 18.2617 9.97242C17.4138 9.54525 16.6667 8.89717 16.1597 8.01992C15.6538 7.14358 15.4658 6.17192 15.5208 5.22408C14.9793 4.79941 14.3807 4.45409 13.7425 4.1965ZM10.9998 7.33333C11.9723 7.33333 12.9049 7.71964 13.5926 8.40728C14.2802 9.09491 14.6665 10.0275 14.6665 11C14.6665 11.9725 14.2802 12.9051 13.5926 13.5927C12.9049 14.2804 11.9723 14.6667 10.9998 14.6667C10.0274 14.6667 9.09474 14.2804 8.40711 13.5927C7.71947 12.9051 7.33317 11.9725 7.33317 11C7.33317 10.0275 7.71947 9.09491 8.40711 8.40728C9.09474 7.71964 10.0274 7.33333 10.9998 7.33333ZM10.9998 9.16667C10.5136 9.16667 10.0473 9.35982 9.70347 9.70364C9.35965 10.0475 9.1665 10.5138 9.1665 11C9.1665 11.4862 9.35965 11.9525 9.70347 12.2964C10.0473 12.6402 10.5136 12.8333 10.9998 12.8333C11.4861 12.8333 11.9524 12.6402 12.2962 12.2964C12.64 11.9525 12.8332 11.4862 12.8332 11C12.8332 10.5138 12.64 10.0475 12.2962 9.70364C11.9524 9.35982 11.4861 9.16667 10.9998 9.16667Z" fill="white"/>
</g>
</g>
<defs>
<clipPath id="clip0_788_4343">
<rect width="22" height="22" fill="white"/>
</clipPath>
</defs>
</svg>
