<svg width="26" height="26" viewBox="0 0 26 26" fill="none" xmlns="http://www.w3.org/2000/svg">
<g id="Frame" clip-path="url(#clip0_788_4187)">
<path id="Vector" d="M19.5003 2.16667V4.33333H10.0755L9.34219 11.3152C10.4083 10.6658 11.6606 10.2917 13.0003 10.2917C16.8893 10.2917 20.042 13.4443 20.042 17.3333C20.042 21.2224 16.8893 24.375 13.0003 24.375C9.70074 24.375 6.93125 22.1056 6.16748 19.0426L8.26984 18.5166C8.79856 20.6372 10.7159 22.2083 13.0003 22.2083C15.6926 22.2083 17.8753 20.0257 17.8753 17.3333C17.8753 14.6409 15.6926 12.4583 13.0003 12.4583C10.8095 12.4583 9.44944 13.1506 8.71004 14.1151L7.00381 12.8353L8.12527 2.16667H19.5003Z" fill="white"/>
</g>
<defs>
<clipPath id="clip0_788_4187">
<rect width="26" height="26" fill="white"/>
</clipPath>
</defs>
</svg>
