<svg width="22" height="22" viewBox="0 0 22 22" fill="none" xmlns="http://www.w3.org/2000/svg">
<g id="Interface / Log_Out" clip-path="url(#clip0_788_4339)">
<path id="Vector" d="M10.9998 13.75L13.7498 11M13.7498 11L10.9998 8.25M13.7498 11H3.6665M8.24984 6.64454V6.60018C8.24984 5.57342 8.24984 5.05966 8.44966 4.66749C8.62543 4.32252 8.90569 4.04226 9.25065 3.86649C9.64282 3.66667 10.1566 3.66667 11.1833 3.66667H15.4C16.4268 3.66667 16.9394 3.66667 17.3316 3.86649C17.6766 4.04226 17.9578 4.32252 18.1335 4.66749C18.3332 5.05927 18.3332 5.57242 18.3332 6.59717V15.4033C18.3332 16.428 18.3332 16.9404 18.1335 17.3322C17.9578 17.6772 17.6766 17.9579 17.3316 18.1337C16.9398 18.3333 16.4274 18.3333 15.4027 18.3333H11.1803C10.1556 18.3333 9.64244 18.3333 9.25065 18.1337C8.90569 17.9579 8.62543 17.6769 8.44966 17.332C8.24984 16.9398 8.24984 16.4268 8.24984 15.4V15.3542" stroke="white" stroke-width="1.6" stroke-linecap="round" stroke-linejoin="round"/>
</g>
<defs>
<clipPath id="clip0_788_4339">
<rect width="22" height="22" fill="white"/>
</clipPath>
</defs>
</svg>
